<svg width="166" height="179" viewBox="0 0 166 179" fill="none" xmlns="http://www.w3.org/2000/svg">
<g filter="url(#filter0_d_261_4)">
<path d="M4.08 147.984H11.28V156.752H18.096V147.984H25.328V170H18.096V161.36H11.28V170H4.08V147.984ZM37.266 170.256C35.474 170.256 33.874 169.904 32.466 169.2C31.0793 168.496 29.9913 167.525 29.202 166.288C28.434 165.029 28.05 163.589 28.05 161.968C28.05 160.347 28.4447 158.917 29.234 157.68C30.0233 156.421 31.1113 155.451 32.498 154.768C33.906 154.085 35.506 153.744 37.298 153.744C39.1113 153.744 40.7113 154.096 42.098 154.8C43.506 155.483 44.594 156.443 45.362 157.68C46.13 158.917 46.514 160.347 46.514 161.968C46.514 163.611 46.1193 165.061 45.33 166.32C44.562 167.557 43.474 168.528 42.066 169.232C40.6793 169.915 39.0793 170.256 37.266 170.256ZM37.33 165.456C38.2047 165.456 38.9193 165.136 39.474 164.496C40.05 163.835 40.338 162.992 40.338 161.968C40.338 160.944 40.05 160.112 39.474 159.472C38.9193 158.811 38.2047 158.48 37.33 158.48C36.4553 158.48 35.73 158.811 35.154 159.472C34.5993 160.112 34.322 160.944 34.322 161.968C34.322 162.992 34.5993 163.835 35.154 164.496C35.73 165.136 36.4553 165.456 37.33 165.456ZM48.9125 154.192H55.3445V157.456C56.0698 156.197 56.8912 155.269 57.8085 154.672C58.7472 154.053 59.8565 153.744 61.1365 153.744C62.3952 153.744 63.4832 154.064 64.4005 154.704C65.3392 155.323 66.0432 156.165 66.5125 157.232C67.8778 154.907 69.8618 153.744 72.4645 153.744C73.7018 153.744 74.7792 154.075 75.6965 154.736C76.6352 155.397 77.3605 156.357 77.8725 157.616C78.3845 158.853 78.6405 160.315 78.6405 162V170H71.8885V162C71.8885 160.912 71.6965 160.091 71.3125 159.536C70.9498 158.981 70.4378 158.704 69.7765 158.704C69.0512 158.704 68.4218 159.013 67.8885 159.632C67.3765 160.251 67.1205 160.997 67.1205 161.872V170H60.4325V162C60.4325 160.912 60.2405 160.091 59.8565 159.536C59.4938 158.981 58.9712 158.704 58.2885 158.704C57.5632 158.704 56.9445 159.013 56.4325 159.632C55.9205 160.251 55.6645 160.997 55.6645 161.872V170H48.9125V154.192ZM90.0443 170.256C88.2736 170.256 86.6949 169.904 85.3083 169.2C83.9429 168.475 82.8763 167.493 82.1083 166.256C81.3403 164.997 80.9563 163.579 80.9563 162C80.9563 160.379 81.3509 158.939 82.1403 157.68C82.9296 156.421 83.9963 155.451 85.3403 154.768C86.6843 154.085 88.1776 153.744 89.8203 153.744C91.3989 153.744 92.7429 154.096 93.8523 154.8C94.9829 155.483 95.8256 156.421 96.3803 157.616C96.9349 158.789 97.2123 160.112 97.2123 161.584C97.2123 161.968 97.1909 162.245 97.1483 162.416L87.5483 163.664C87.8043 164.411 88.2203 164.955 88.7963 165.296C89.3723 165.616 90.1296 165.776 91.0683 165.776C92.5189 165.776 94.0869 165.403 95.7723 164.656L96.5723 168.944C94.5883 169.819 92.4123 170.256 90.0443 170.256ZM92.2523 159.632C91.9109 158.288 91.1003 157.616 89.8203 157.616C89.0523 157.616 88.4443 157.904 87.9963 158.48C87.5483 159.056 87.3136 159.803 87.2923 160.72L92.2523 159.632Z" fill="black"/>
<path d="M96.7515 147.984H103.984L107.376 161.712L110.768 147.984H118.32L111.44 170H103.28L96.7515 147.984ZM125.42 170.256C123.628 170.256 122.23 169.68 121.228 168.528C120.225 167.376 119.724 165.808 119.724 163.824V153.968H126.508V163.536C126.508 164.027 126.636 164.411 126.892 164.688C127.169 164.944 127.521 165.072 127.948 165.072C128.374 165.072 128.812 164.944 129.26 164.688L129.612 169.136C129.142 169.499 128.524 169.776 127.756 169.968C127.009 170.16 126.23 170.256 125.42 170.256ZM123.116 151.568C122.113 151.568 121.26 151.259 120.556 150.64C119.873 150 119.532 149.221 119.532 148.304C119.532 147.387 119.894 146.619 120.62 146C121.345 145.381 122.177 145.072 123.116 145.072C124.097 145.072 124.94 145.392 125.644 146.032C126.369 146.672 126.732 147.429 126.732 148.304C126.732 149.243 126.369 150.021 125.644 150.64C124.918 151.259 124.076 151.568 123.116 151.568ZM139.379 170.256C137.672 170.256 136.158 169.915 134.835 169.232C133.534 168.528 132.51 167.547 131.763 166.288C131.038 165.029 130.675 163.6 130.675 162C130.675 160.464 131.059 159.067 131.827 157.808C132.595 156.549 133.64 155.557 134.963 154.832C136.286 154.107 137.758 153.744 139.379 153.744C141.448 153.744 143.08 154.171 144.275 155.024L143.667 159.28C142.451 158.917 141.448 158.736 140.659 158.736C139.635 158.736 138.824 159.035 138.227 159.632C137.63 160.208 137.331 160.997 137.331 162C137.331 163.003 137.63 163.803 138.227 164.4C138.824 164.997 139.614 165.296 140.595 165.296C141.448 165.296 142.451 165.115 143.603 164.752L144.211 169.232C143.486 169.595 142.75 169.851 142.003 170C141.256 170.171 140.382 170.256 139.379 170.256ZM154.669 170.256C152.899 170.256 151.32 169.904 149.933 169.2C148.568 168.475 147.501 167.493 146.733 166.256C145.965 164.997 145.581 163.579 145.581 162C145.581 160.379 145.976 158.939 146.765 157.68C147.555 156.421 148.621 155.451 149.965 154.768C151.309 154.085 152.803 153.744 154.445 153.744C156.024 153.744 157.368 154.096 158.477 154.8C159.608 155.483 160.451 156.421 161.005 157.616C161.56 158.789 161.837 160.112 161.837 161.584C161.837 161.968 161.816 162.245 161.773 162.416L152.173 163.664C152.429 164.411 152.845 164.955 153.421 165.296C153.997 165.616 154.755 165.776 155.693 165.776C157.144 165.776 158.712 165.403 160.397 164.656L161.197 168.944C159.213 169.819 157.037 170.256 154.669 170.256ZM156.877 159.632C156.536 158.288 155.725 157.616 154.445 157.616C153.677 157.616 153.069 157.904 152.621 158.48C152.173 159.056 151.939 159.803 151.917 160.72L156.877 159.632Z" fill="#4699BC"/>
</g>
<rect x="29.254" y="44.1375" width="7.82855" height="57.7535" rx="3" fill="#4699BC"/>
<rect width="10.2327" height="96.5879" rx="3" transform="matrix(0.462738 0.886495 -0.807519 0.589841 81.9966 0.82959)" fill="#4699BC"/>
<rect width="10.2917" height="93.0245" rx="3" transform="matrix(0.483619 -0.875279 0.797945 0.602731 76.038 9.00806)" fill="#4699BC"/>
<path d="M117.978 68.9292C117.978 75.0269 113.304 68.9292 107.539 68.9292C101.775 68.9292 97.1014 75.0269 97.1014 68.9292C97.1014 62.8316 101.775 57.8884 107.539 57.8884C113.304 57.8884 117.978 62.8316 117.978 68.9292Z" fill="#4699BC"/>
<rect x="52.7396" y="55.1382" width="9.48916" height="10.0006" rx="0.5" fill="#4699BC"/>
<rect x="64.1266" y="55.1382" width="9.48916" height="10.0006" rx="0.5" fill="#4699BC"/>
<rect x="52.7396" y="67.1389" width="9.48916" height="10.0006" rx="0.5" fill="#4699BC"/>
<rect x="64.1266" y="67.1389" width="9.48916" height="10.0006" rx="0.5" fill="#4699BC"/>
<path d="M156.943 77.6862C156.903 77.481 156.807 77.2963 156.664 77.1534C156.522 77.0105 156.34 76.9151 156.139 76.8781C155.937 76.8411 155.725 76.864 155.526 76.9441C155.326 77.0243 155.148 77.1584 155.012 77.3313L152.473 80.5621C151.546 81.742 150.062 82.3546 148.527 82.1929C146.701 82.0006 145.12 80.7495 144.51 79.0128C143.998 77.5551 144.246 75.9696 145.172 74.792L147.714 71.5572C147.85 71.3839 147.938 71.1789 147.969 70.9659C148.001 70.7529 147.973 70.5403 147.89 70.3525C147.808 70.1646 147.673 70.0091 147.501 69.9037C147.329 69.7983 147.128 69.7472 146.92 69.7563C145.147 69.8366 143.384 70.3683 141.79 71.3032C140.196 72.238 138.821 73.5466 137.789 75.1105C136.758 76.6744 136.102 78.4442 135.882 80.2599C135.721 81.5875 136.962 84.1851 137.893 86.1227C138.437 87.2565 138.468 88.5275 138.033 89.6674L135.043 97.51C134.873 97.9553 134.632 98.3648 134.266 98.6674C131.627 100.848 120.089 108.489 104.947 114.001C107.028 113.03 98.6147 116.482 96.7414 115.016C95.8453 114.315 113.267 110.972 104.947 114.001C118.662 106.958 125.706 107.152 126.572 106.05L141.314 91.9293C142.382 90.9069 143.871 90.482 145.366 90.788C146.776 91.0766 148.288 91.3025 149.344 90.9074C151.052 90.2682 152.614 89.2151 153.888 87.8434C155.162 86.4716 156.109 84.8245 156.642 83.051C157.176 81.2776 157.279 79.4337 156.943 77.6862Z" fill="#292C44"/>
<path d="M19.3295 78.5889C28.0364 106.494 77.8224 129.858 117.35 108.253C126.375 103.32 135.757 93.5062 140.514 86.0183" stroke="#292C44" stroke-width="9.4"/>
<ellipse cx="4.66956" cy="5.42524" rx="4.66956" ry="5.42524" transform="matrix(-0.734691 0.688022 -0.647406 -0.752916 25.9376 78.9116)" fill="#292C44"/>
<defs>
<filter id="filter0_d_261_4" x="0.0800171" y="145.072" width="165.757" height="33.1841" filterUnits="userSpaceOnUse" color-interpolation-filters="sRGB">
<feFlood flood-opacity="0" result="BackgroundImageFix"/>
<feColorMatrix in="SourceAlpha" type="matrix" values="0 0 0 0 0 0 0 0 0 0 0 0 0 0 0 0 0 0 127 0" result="hardAlpha"/>
<feOffset dy="4"/>
<feGaussianBlur stdDeviation="2"/>
<feComposite in2="hardAlpha" operator="out"/>
<feColorMatrix type="matrix" values="0 0 0 0 0 0 0 0 0 0 0 0 0 0 0 0 0 0 0.25 0"/>
<feBlend mode="normal" in2="BackgroundImageFix" result="effect1_dropShadow_261_4"/>
<feBlend mode="normal" in="SourceGraphic" in2="effect1_dropShadow_261_4" result="shape"/>
</filter>
</defs>
</svg>
