<svg width="157" height="147" viewBox="0 0 157 147" fill="none" xmlns="http://www.w3.org/2000/svg">
<rect x="25.254" y="44.1375" width="7.82855" height="57.7535" rx="3" fill="#4699BC"/>
<rect width="10.2327" height="96.5879" rx="3" transform="matrix(0.462738 0.886495 -0.807519 0.589841 77.9966 0.82959)" fill="#4699BC"/>
<rect width="10.2917" height="93.0245" rx="3" transform="matrix(0.483619 -0.875279 0.797945 0.602731 72.038 9.00806)" fill="#4699BC"/>
<path d="M113.978 68.9292C113.978 75.0269 109.304 68.9292 103.539 68.9292C97.7747 68.9292 93.1014 75.0269 93.1014 68.9292C93.1014 62.8316 97.7747 57.8884 103.539 57.8884C109.304 57.8884 113.978 62.8316 113.978 68.9292Z" fill="#4699BC"/>
<rect x="48.7396" y="55.1382" width="9.48916" height="10.0006" rx="0.5" fill="#4699BC"/>
<rect x="60.1266" y="55.1382" width="9.48916" height="10.0006" rx="0.5" fill="#4699BC"/>
<rect x="48.7396" y="67.1389" width="9.48916" height="10.0006" rx="0.5" fill="#4699BC"/>
<rect x="60.1266" y="67.1389" width="9.48916" height="10.0006" rx="0.5" fill="#4699BC"/>
<path d="M152.943 77.6862C152.903 77.481 152.807 77.2963 152.664 77.1534C152.522 77.0105 152.34 76.9151 152.139 76.8781C151.937 76.8411 151.725 76.864 151.526 76.9441C151.326 77.0243 151.148 77.1584 151.012 77.3313L148.473 80.5621C147.546 81.742 146.062 82.3546 144.527 82.1929C142.701 82.0006 141.12 80.7495 140.51 79.0128C139.998 77.5551 140.246 75.9696 141.172 74.792L143.714 71.5572C143.85 71.3839 143.938 71.1789 143.969 70.9659C144.001 70.7529 143.973 70.5403 143.89 70.3525C143.808 70.1646 143.673 70.0091 143.501 69.9037C143.329 69.7983 143.128 69.7472 142.92 69.7563C141.147 69.8366 139.384 70.3683 137.79 71.3032C136.196 72.238 134.821 73.5466 133.789 75.1105C132.758 76.6744 132.102 78.4442 131.882 80.2599C131.721 81.5875 132.962 84.1851 133.893 86.1227C134.437 87.2565 134.468 88.5275 134.033 89.6674L131.043 97.51C130.873 97.9553 130.632 98.3648 130.266 98.6674C127.627 100.848 116.089 108.489 100.947 114.001C103.028 113.03 94.6147 116.482 92.7414 115.016C91.8453 114.315 109.267 110.972 100.947 114.001C114.662 106.958 121.706 107.152 122.572 106.05L137.314 91.9293C138.382 90.9069 139.871 90.482 141.366 90.788C142.776 91.0766 144.288 91.3025 145.344 90.9074C147.052 90.2682 148.614 89.2151 149.888 87.8434C151.162 86.4716 152.109 84.8245 152.642 83.051C153.176 81.2776 153.279 79.4337 152.943 77.6862Z" fill="#292C44"/>
<path d="M15.3295 78.5889C24.0364 106.494 73.8224 129.858 113.35 108.253C122.375 103.32 131.757 93.5062 136.514 86.0183" stroke="#292C44" stroke-width="9.4"/>
<ellipse cx="4.66956" cy="5.42524" rx="4.66956" ry="5.42524" transform="matrix(-0.734691 0.688022 -0.647406 -0.752916 21.9376 78.9116)" fill="#292C44"/>
</svg>
